<?xml version="1.0"?>
<svg xmlns="http://www.w3.org/2000/svg" xmlns:xlink="http://www.w3.org/1999/xlink" version="1.1" id="Layer_1" x="0px" y="0px" viewBox="0 0 290.626 290.626" style="enable-background:new 0 0 290.626 290.626;" xml:space="preserve" width="512px" height="512px" class=""><g><g>
	<g>
		<g>
			<rect x="23.438" y="243.75" width="9.375" height="9.375" data-original="#000000" class="active-path" data-old_color="#0007FF" fill="#0C0D38"/>
			<rect x="46.876" y="243.75" width="9.375" height="9.375" data-original="#000000" class="active-path" data-old_color="#0007FF" fill="#0C0D38"/>
			<rect x="23.438" y="192.188" width="9.375" height="9.375" data-original="#000000" class="active-path" data-old_color="#0007FF" fill="#0C0D38"/>
			<rect x="46.876" y="192.188" width="9.375" height="9.375" data-original="#000000" class="active-path" data-old_color="#0007FF" fill="#0C0D38"/>
			<rect x="140.626" y="173.438" width="9.375" height="28.125" data-original="#000000" class="active-path" data-old_color="#0007FF" fill="#0C0D38"/>
			<rect x="112.501" y="173.438" width="9.375" height="28.125" data-original="#000000" class="active-path" data-old_color="#0007FF" fill="#0C0D38"/>
			<rect x="84.376" y="178.125" width="9.375" height="23.438" data-original="#000000" class="active-path" data-old_color="#0007FF" fill="#0C0D38"/>
			<rect x="196.876" y="178.125" width="9.375" height="23.438" data-original="#000000" class="active-path" data-old_color="#0007FF" fill="#0C0D38"/>
			<rect x="168.751" y="173.438" width="9.375" height="28.125" data-original="#000000" class="active-path" data-old_color="#0007FF" fill="#0C0D38"/>
			<path d="M281.25,154.688v-9.375h-9.375v9.375h-51.563v-14.063h9.375v-12.516l-14.063-5.789v-9.82h-9.375v5.958l-18.75-7.72     v-31.05h9.375v-9.375h-9.374v-18.75h-1.397c-3.188-7.228-11.339-16.823-26.728-18.478V14.063h-9.375V0h-9.375v14.063h-9.375     v19.022c-15.389,1.655-23.541,11.25-26.728,18.478h-1.397v18.75h-9.375v9.375h9.375v31.05l-18.75,7.72V112.5h-9.375v9.82     l-14.063,5.789v12.516h9.375v14.063H18.751v-9.375H9.376v9.375H0.001v135.938h290.625V154.688H281.25z M70.313,281.25H9.376     v-9.375h60.938V281.25z M70.313,262.5H9.376v-28.125h60.938V262.5z M70.313,225H56.251v-14.063h-9.375V225H32.813v-14.063h-9.375     V225H9.376v-42.188h60.938V225z M70.313,173.438H9.376v-9.375h60.938V173.438z M175.276,51.563h-7.327     c-0.586-2.442-1.458-5.053-2.662-7.542C170.167,45.886,173.316,48.862,175.276,51.563z M140.626,23.438h9.375v9.375h-9.375     V23.438z M140.626,42.188h9.375c4.298,0,6.806,5.175,8.137,9.375h-25.669C133.787,47.362,136.285,42.188,140.626,42.188z      M125.334,44.03c-1.205,2.484-2.077,5.091-2.658,7.533h-7.322C117.315,48.872,120.464,45.895,125.334,44.03z M112.501,60.938     h65.625v9.375h-65.625V60.938z M178.126,79.688v27.192l-4.688-1.931V79.688H178.126z M164.063,79.688v21.398l-18.75-7.72     l-18.75,7.72V79.688H164.063z M112.501,79.688h4.688v25.261l-4.688,1.931V79.688z M89.063,281.25h-9.375v-9.375h9.375V281.25z      M112.501,281.25H98.438v-9.375h14.062V281.25z M140.626,281.25h-18.75v-9.375h18.75V281.25z M168.751,281.25h-18.75v-9.375     h18.75V281.25z M192.188,281.25h-14.063v-9.375h14.063V281.25z M210.938,281.25h-9.375v-9.375h9.375V281.25z M210.938,262.5     h-9.375v-14.063h-9.375V262.5h-14.063v-18.75h-9.375v18.75h-18.75v-18.75h-9.375v18.75h-18.75v-18.75h-9.375v18.75H98.438     v-14.063h-9.375V262.5h-9.375v-32.813h18.75v9.375h9.375v-9.375h18.75v9.375h9.375v-9.375h18.75v9.375h9.375v-9.375h18.75v9.375     h9.375v-9.375h18.75V262.5z M79.688,220.313v-60.938h18.75v60.938H79.688z M107.813,220.313v-60.938h18.75v60.938H107.813z      M135.938,220.313v-60.938h18.75v60.938H135.938z M164.063,220.313v-60.938h18.75v60.938H164.063z M210.938,220.313h-18.75     v-60.938h18.75V220.313z M210.938,150H79.688v-9.375h131.25V150z M122.781,131.25l22.533-9.014l22.532,9.014H122.781z      M210.938,131.25h-17.846l-47.78-19.111l-47.78,19.111H79.688h-1.753l67.378-27.741l67.378,27.741H210.938z M220.313,164.063     h60.938v9.375h-60.938V164.063z M220.313,182.812h60.938V225h-14.062v-14.063h-9.375V225h-14.063v-14.063h-9.375V225h-14.063     V182.812z M281.252,281.25h-60.938v-9.375h60.938V281.25z M281.252,262.5h-60.938v-28.125h60.938V262.5z" data-original="#000000" class="active-path" data-old_color="#0007FF" fill="#0C0D38"/>
			<rect x="257.813" y="243.75" width="9.375" height="9.375" data-original="#000000" class="active-path" data-old_color="#0007FF" fill="#0C0D38"/>
			<rect x="234.376" y="243.75" width="9.375" height="9.375" data-original="#000000" class="active-path" data-old_color="#0007FF" fill="#0C0D38"/>
			<rect x="257.813" y="192.188" width="9.375" height="9.375" data-original="#000000" class="active-path" data-old_color="#0007FF" fill="#0C0D38"/>
			<rect x="234.376" y="192.188" width="9.375" height="9.375" data-original="#000000" class="active-path" data-old_color="#0007FF" fill="#0C0D38"/>
		</g>
	</g>
</g></g> </svg>
