<?xml version="1.0"?>
<svg xmlns="http://www.w3.org/2000/svg" height="512px" viewBox="0 0 512 512" width="512px" class=""><g><path d="m502 348.667969h-25.332031v-26.667969c0-5.523438-4.480469-10-10-10h-35.335938c-5.519531 0-10 4.476562-10 10v26.667969h-15.332031v-154.335938c0-5.519531-4.476562-10-10-10h-56c-5.523438 0-10 4.480469-10 10v26.667969h-36v-26.667969c0-5.519531-4.476562-10-10-10h-18v-44.332031h134c5.523438 0 10-4.476562 10-10v-104c0-5.523438-4.476562-10-10-10h-134v-6c0-5.523438-4.476562-10-10-10s-10 4.476562-10 10v174.332031h-18c-5.523438 0-10 4.480469-10 10v26.667969h-36v-26.667969c0-5.519531-4.476562-10-10-10h-56c-5.523438 0-10 4.480469-10 10v154.335938h-15.332031v-26.667969c0-5.523438-4.480469-10-10-10h-35.335938c-5.519531 0-10 4.476562-10 10v26.667969h-25.332031c-5.523438 0-10 4.476562-10 10v143.332031c0 5.523438 4.476562 10 10 10s10-4.476562 10-10v-133.332031h25.332031c5.523438 0 10-4.480469 10-10v-26.667969h15.335938v26.667969c0 5.519531 4.476562 10 10 10h25.332031v133.332031c0 5.523438 4.476562 10 10 10h280c5.523438 0 10-4.476562 10-10v-133.332031h25.332031c5.523438 0 10-4.480469 10-10v-26.667969h15.335938v26.667969c0 5.519531 4.476562 10 10 10h25.332031v133.332031c0 5.523438 4.476562 10 10 10s10-4.476562 10-10v-143.332031c0-5.523438-4.476562-10-10-10zm-112-312.667969v27.5h-51.75c-5.523438 0-10 4.476562-10 10s4.476562 10 10 10h51.75v36.5h-124v-84zm-143.871094 456h-40.128906v-100.332031c0-24.191407 17.269531-44.421875 40.128906-49.019531zm20 0v-149.300781c22.730469 4.695312 39.871094 24.867187 39.871094 48.96875v100.332031zm119.871094 0h-60v-100.332031c0-38.597657-31.402344-70-70-70s-70 31.402343-70 70v100.332031h-60v-287.667969h36v26.667969c0 5.523438 4.476562 10 10 10h56c5.523438 0 10-4.476562 10-10v-26.667969h36v26.667969c0 5.523438 4.476562 10 10 10h56c5.523438 0 10-4.476562 10-10v-26.667969h36zm0 0" data-original="#000000" class="active-path" data-old_color="#0A106B" fill="#0B0F46"/><path d="m185 273h-17.332031c-5.523438 0-10 4.476562-10 10s4.476562 10 10 10h17.332031c5.523438 0 10-4.476562 10-10s-4.476562-10-10-10zm0 0" data-original="#000000" class="active-path" data-old_color="#0A106B" fill="#0B0F46"/><path d="m264.792969 273h-17.332031c-5.523438 0-10 4.476562-10 10s4.476562 10 10 10h17.332031c5.523437 0 10-4.476562 10-10s-4.476563-10-10-10zm0 0" data-original="#000000" class="active-path" data-old_color="#0A106B" fill="#0B0F46"/><path d="m344.585938 273h-17.332032c-5.523437 0-10 4.476562-10 10s4.476563 10 10 10h17.332032c5.523437 0 10-4.476562 10-10s-4.476563-10-10-10zm0 0" data-original="#000000" class="active-path" data-old_color="#0A106B" fill="#0B0F46"/><path d="m279.5 406.828125c-2.628906 0-5.210938 1.070313-7.070312 2.933594-1.859376 1.859375-2.929688 4.4375-2.929688 7.066406 0 2.632813 1.070312 5.210937 2.929688 7.070313 1.859374 1.871093 4.441406 2.929687 7.070312 2.929687s5.210938-1.058594 7.070312-2.929687c1.859376-1.859376 2.929688-4.4375 2.929688-7.070313 0-2.628906-1.070312-5.207031-2.929688-7.066406-1.859374-1.863281-4.441406-2.933594-7.070312-2.933594zm0 0" data-original="#000000" class="active-path" data-old_color="#0A106B" fill="#0B0F46"/><path d="m303.5 83.5c2.628906 0 5.210938-1.070312 7.070312-2.929688 1.859376-1.859374 2.929688-4.441406 2.929688-7.070312s-1.070312-5.210938-2.929688-7.070312c-1.859374-1.859376-4.441406-2.929688-7.070312-2.929688s-5.210938 1.070312-7.070312 2.929688c-1.859376 1.859374-2.929688 4.441406-2.929688 7.070312 0 2.640625 1.070312 5.210938 2.929688 7.070312 1.859374 1.859376 4.441406 2.929688 7.070312 2.929688zm0 0" data-original="#000000" class="active-path" data-old_color="#0A106B" fill="#0B0F46"/><path d="m58 438c-5.523438 0-10 4.476562-10 10v54c0 5.523438 4.476562 10 10 10s10-4.476562 10-10v-54c0-5.523438-4.476562-10-10-10zm0 0" data-original="#000000" class="active-path" data-old_color="#0A106B" fill="#0B0F46"/><path d="m58 395c-2.628906 0-5.210938 1.070312-7.070312 2.929688-1.859376 1.859374-2.929688 4.441406-2.929688 7.070312s1.070312 5.210938 2.929688 7.070312c1.859374 1.859376 4.441406 2.929688 7.070312 2.929688s5.210938-1.070312 7.070312-2.929688c1.859376-1.859374 2.929688-4.441406 2.929688-7.070312s-1.070312-5.210938-2.929688-7.070312c-1.859374-1.859376-4.441406-2.929688-7.070312-2.929688zm0 0" data-original="#000000" class="active-path" data-old_color="#0A106B" fill="#0B0F46"/></g> </svg>
