<?xml version="1.0"?>
<svg xmlns="http://www.w3.org/2000/svg" height="512px" viewBox="0 0 496 496" width="512px" class=""><g><path d="m304 304h16v16h-16zm0 0" data-original="#000000" class="active-path" data-old_color="#0091FF" fill="#071C31"/><path d="m176 304h16v16h-16zm0 0" data-original="#000000" class="active-path" data-old_color="#0091FF" fill="#071C31"/><path d="m496 208v-48h-112v-128h-16v-32h-16v32h-16v64h-176v-64h-16v-32h-16v32h-16v128h-112v48h16v24h-16v16h16v24h-16v48h16v176h464v-176h16v-48h-16v-24h16v-16h-16v-24zm-16-32v16h-96v-16zm-64 160v-16h16v16zm-16 0h-16v-16h16zm-112 144h-80v-74.335938c0-28.695312 15.222656-54.625 40-68.609374 24.777344 13.984374 40 39.914062 40 68.609374zm-36.425781-159.160156-3.574219-1.785156-3.574219 1.792968c-32.335937 16.160156-52.425781 48.664063-52.425781 84.816406v74.335938h-32v-192h176v192h-32v-74.335938c0-36.152343-20.089844-68.65625-52.425781-84.824218zm-171.574219-.839844v16h-16v-16zm16 0h16v16h-16zm240-48h-16v-32h16zm-176-32h16v32h-16zm32 0h16v32h-16zm32 0h16v32h-16zm32 0h16v32h-16zm32 0h16v32h-16zm48-16h-176v-80h176zm-192 256h-16v-400h16zm224 0h-16v-400h16zm0-432v16h-16v-16zm-32 64v16h-176v-16zm-192-64v16h-16v-16zm-128 128h96v16h-96zm16 32h80v64h-80zm-16 80h96v16h-96zm32 32v16h-16v-16zm-16 32h80v128h-16v-40c0-13.230469-10.769531-24-24-24s-24 10.769531-24 24v40h-16zm48 128h-16v-40c0-4.40625 3.585938-8 8-8s8 3.59375 8 8zm352 0h-16v-40c0-4.40625 3.585938-8 8-8s8 3.59375 8 8zm16 0v-40c0-13.230469-10.769531-24-24-24s-24 10.769531-24 24v40h-16v-128h80v128zm16-144h-16v-16h16zm16-32h-96v-16h96zm-16-32h-80v-64h80zm0 0" data-original="#000000" class="active-path" data-old_color="#0091FF" fill="#071C31"/><path d="m320 208v-48h-144v48zm-128-32h112v16h-112zm0 0" data-original="#000000" class="active-path" data-old_color="#0091FF" fill="#071C31"/><path d="m400 232h16v16h-16zm0 0" data-original="#000000" class="active-path" data-old_color="#0091FF" fill="#071C31"/><path d="m432 232h16v16h-16zm0 0" data-original="#000000" class="active-path" data-old_color="#0091FF" fill="#071C31"/><path d="m48 232h16v16h-16zm0 0" data-original="#000000" class="active-path" data-old_color="#0091FF" fill="#071C31"/><path d="m80 232h16v16h-16zm0 0" data-original="#000000" class="active-path" data-old_color="#0091FF" fill="#071C31"/></g> </svg>
